<?xml version="1.0" encoding="UTF-8"?>
<!DOCTYPE score-partwise PUBLIC "-//Recordare//DTD MusicXML 4.0 Partwise//EN" "http://www.musicxml.org/dtds/partwise.dtd">
<score-partwise version="4.0">
  <part-list>
    <score-part id="P1">
      <part-name>Piano</part-name>
    </score-part>
  </part-list>
  <part id="P1">
    <measure number="1">
      <attributes>
        <divisions>1</divisions>
        <key><fifths>0</fifths></key>
        <time><beats>4</beats><beat-type>4</beat-type></time>
        <clef><sign>G</sign><line>2</line></clef>
      </attributes>
      <direction placement="above">
        <sound tempo="100"/>
      </direction>
      <!-- C D E F ascending -->
      <note><pitch><step>C</step><octave>4</octave></pitch><duration>1</duration><voice>1</voice></note>
      <note><pitch><step>D</step><octave>4</octave></pitch><duration>1</duration><voice>1</voice></note>
      <note><pitch><step>E</step><octave>4</octave></pitch><duration>1</duration><voice>1</voice></note>
      <note><pitch><step>F</step><octave>4</octave></pitch><duration>1</duration><voice>1</voice></note>
    </measure>
    <measure number="2">
      <!-- G A B C ascending -->
      <note><pitch><step>G</step><octave>4</octave></pitch><duration>1</duration><voice>1</voice></note>
      <note><pitch><step>A</step><octave>4</octave></pitch><duration>1</duration><voice>1</voice></note>
      <note><pitch><step>B</step><octave>4</octave></pitch><duration>1</duration><voice>1</voice></note>
      <note><pitch><step>C</step><octave>5</octave></pitch><duration>1</duration><voice>1</voice></note>
    </measure>
    <measure number="3">
      <!-- C B A G descending -->
      <note><pitch><step>C</step><octave>5</octave></pitch><duration>1</duration><voice>1</voice></note>
      <note><pitch><step>B</step><octave>4</octave></pitch><duration>1</duration><voice>1</voice></note>
      <note><pitch><step>A</step><octave>4</octave></pitch><duration>1</duration><voice>1</voice></note>
      <note><pitch><step>G</step><octave>4</octave></pitch><duration>1</duration><voice>1</voice></note>
    </measure>
    <measure number="4">
      <!-- F E D C descending -->
      <note><pitch><step>F</step><octave>4</octave></pitch><duration>1</duration><voice>1</voice></note>
      <note><pitch><step>E</step><octave>4</octave></pitch><duration>1</duration><voice>1</voice></note>
      <note><pitch><step>D</step><octave>4</octave></pitch><duration>1</duration><voice>1</voice></note>
      <note><pitch><step>C</step><octave>4</octave></pitch><duration>1</duration><voice>1</voice></note>
    </measure>
    <measure number="5">
      <!-- Repeat with octave higher: C D E F -->
      <note><pitch><step>C</step><octave>5</octave></pitch><duration>1</duration><voice>1</voice></note>
      <note><pitch><step>D</step><octave>5</octave></pitch><duration>1</duration><voice>1</voice></note>
      <note><pitch><step>E</step><octave>5</octave></pitch><duration>1</duration><voice>1</voice></note>
      <note><pitch><step>F</step><octave>5</octave></pitch><duration>1</duration><voice>1</voice></note>
    </measure>
    <measure number="6">
      <!-- G A B C -->
      <note><pitch><step>G</step><octave>5</octave></pitch><duration>1</duration><voice>1</voice></note>
      <note><pitch><step>A</step><octave>5</octave></pitch><duration>1</duration><voice>1</voice></note>
      <note><pitch><step>B</step><octave>5</octave></pitch><duration>1</duration><voice>1</voice></note>
      <note><pitch><step>C</step><octave>6</octave></pitch><duration>1</duration><voice>1</voice></note>
    </measure>
    <measure number="7">
      <!-- C B A G descending -->
      <note><pitch><step>C</step><octave>6</octave></pitch><duration>1</duration><voice>1</voice></note>
      <note><pitch><step>B</step><octave>5</octave></pitch><duration>1</duration><voice>1</voice></note>
      <note><pitch><step>A</step><octave>5</octave></pitch><duration>1</duration><voice>1</voice></note>
      <note><pitch><step>G</step><octave>5</octave></pitch><duration>1</duration><voice>1</voice></note>
    </measure>
    <measure number="8">
      <!-- F E D C final -->
      <note><pitch><step>F</step><octave>5</octave></pitch><duration>1</duration><voice>1</voice></note>
      <note><pitch><step>E</step><octave>5</octave></pitch><duration>1</duration><voice>1</voice></note>
      <note><pitch><step>D</step><octave>5</octave></pitch><duration>1</duration><voice>1</voice></note>
      <note><pitch><step>C</step><octave>5</octave></pitch><duration>2</duration><voice>1</voice></note>
    </measure>
  </part>
</score-partwise>
